<svg width="6" height="17" viewBox="0 0 6 17" fill="none" xmlns="http://www.w3.org/2000/svg">
<path d="M2.592 16.608C2.048 15.472 1.184 14.416 0 13.44V12.6C0.512 12.84 0.96 13.08 1.344 13.32C1.728 13.544 2.048 13.768 2.304 13.992V0H3.312V13.992C3.584 13.768 3.912 13.544 4.296 13.32C4.68 13.08 5.12 12.84 5.616 12.6V13.44C4.448 14.416 3.584 15.472 3.024 16.608H2.592Z" fill="#26252A"/>
<path d="M2.592 16.608C2.048 15.472 1.184 14.416 0 13.44V12.6C0.512 12.84 0.96 13.08 1.344 13.32C1.728 13.544 2.048 13.768 2.304 13.992V0H3.312V13.992C3.584 13.768 3.912 13.544 4.296 13.32C4.68 13.08 5.12 12.84 5.616 12.6V13.44C4.448 14.416 3.584 15.472 3.024 16.608H2.592Z" fill="black" fill-opacity="0.2"/>
</svg>
